<svg id="svg" version="1.1" xmlns="http://www.w3.org/2000/svg" xmlns:xlink="http://www.w3.org/1999/xlink" width="400" height="300" viewBox="0, 0, 400,300"><g id="svgg"><path id="path0" d="M163.949 104.726 C 163.949 106.294,164.000 106.935,164.062 106.152 C 164.123 105.368,164.123 104.085,164.062 103.301 C 164.000 102.517,163.949 103.158,163.949 104.726 M210.953 133.833 C 210.953 133.998,210.683 134.134,210.353 134.134 C 210.023 134.134,209.752 134.237,209.752 134.362 C 209.752 134.488,209.460 134.725,209.102 134.888 C 208.744 135.051,208.305 135.454,208.127 135.784 C 207.948 136.114,207.719 136.452,207.617 136.534 C 207.516 136.617,207.335 136.996,207.217 137.377 C 206.986 138.114,205.979 138.635,204.782 138.635 C 204.380 138.635,204.051 138.770,204.051 138.935 C 204.051 139.100,203.511 139.235,202.851 139.235 C 202.191 139.235,201.650 139.370,201.650 139.535 C 201.650 139.700,201.110 139.835,200.450 139.835 C 199.774 139.835,199.250 139.980,199.250 140.167 C 199.250 140.372,198.795 140.455,198.050 140.384 C 197.216 140.304,196.849 140.386,196.849 140.652 C 196.849 140.889,196.454 141.035,195.817 141.035 C 195.249 141.035,194.693 141.183,194.581 141.364 C 194.469 141.545,193.921 141.639,193.363 141.574 C 192.670 141.493,192.348 141.579,192.348 141.846 C 192.348 142.077,191.989 142.236,191.465 142.236 C 190.800 142.236,190.449 142.460,190.046 143.142 C 189.752 143.640,189.346 143.985,189.144 143.907 C 188.943 143.830,188.839 143.928,188.913 144.126 C 188.987 144.324,188.637 144.924,188.135 145.458 C 187.633 145.993,186.923 147.075,186.558 147.863 C 185.761 149.584,183.745 152.066,182.936 152.323 C 182.282 152.530,180.045 154.711,180.045 155.141 C 180.045 155.294,179.579 155.885,179.009 156.455 C 176.754 158.710,176.021 167.142,178.080 167.142 C 178.308 167.142,178.551 167.311,178.621 167.517 C 178.810 168.082,180.183 167.262,180.687 166.284 C 180.912 165.848,181.389 165.191,181.749 164.824 C 182.108 164.457,182.644 163.749,182.939 163.249 C 183.234 162.749,183.581 162.341,183.711 162.341 C 183.840 162.341,183.946 162.201,183.946 162.030 C 183.946 161.859,184.220 161.420,184.555 161.055 C 186.275 159.179,187.247 157.998,187.247 157.782 C 187.247 157.373,189.155 155.582,189.947 155.249 C 193.086 153.926,194.611 153.715,195.861 154.433 C 196.746 154.940,198.950 154.349,198.950 153.604 C 198.950 153.458,199.141 153.338,199.375 153.338 C 199.982 153.338,201.050 151.481,201.050 150.427 C 201.050 148.333,197.844 147.329,196.114 148.881 C 195.957 149.022,195.586 149.137,195.289 149.137 C 194.992 149.137,194.749 149.346,194.749 149.601 C 194.749 150.394,193.350 151.538,192.379 151.538 C 191.887 151.538,191.400 151.673,191.298 151.838 C 191.196 152.003,190.799 152.138,190.417 152.138 C 188.975 152.138,186.647 153.441,186.647 154.247 C 186.647 154.440,186.270 154.956,185.809 155.393 C 185.348 155.831,184.572 156.729,184.085 157.389 C 183.598 158.050,183.124 158.657,183.033 158.740 C 182.942 158.822,182.540 159.362,182.141 159.940 C 181.221 161.271,180.765 161.740,180.392 161.740 C 179.756 161.740,179.882 160.954,180.631 160.240 C 181.064 159.827,181.748 159.017,182.151 158.440 C 182.553 157.862,183.156 157.110,183.489 156.768 C 183.823 156.427,184.366 155.767,184.696 155.303 C 185.026 154.839,185.701 154.035,186.197 153.516 C 187.609 152.036,187.867 151.648,188.029 150.751 C 188.201 149.807,190.686 146.737,191.279 146.737 C 191.491 146.737,191.917 146.399,192.227 145.986 C 192.537 145.574,193.088 145.236,193.452 145.236 C 193.816 145.236,194.204 145.089,194.316 144.908 C 194.428 144.728,195.027 144.628,195.648 144.687 C 196.466 144.765,196.736 144.691,196.631 144.416 C 196.528 144.148,196.847 144.036,197.717 144.036 C 198.395 144.036,198.950 143.916,198.950 143.769 C 198.950 143.517,199.640 143.349,202.326 142.943 C 202.944 142.849,203.451 142.652,203.451 142.504 C 203.451 142.356,203.916 142.236,204.483 142.236 C 205.051 142.236,205.599 142.101,205.701 141.935 C 206.018 141.424,207.198 141.605,207.652 142.236 C 207.890 142.566,208.325 142.836,208.618 142.836 C 208.912 142.836,209.152 142.971,209.152 143.136 C 209.152 143.813,213.766 142.524,214.933 141.521 C 217.310 139.478,216.943 134.134,214.425 134.134 C 214.166 134.134,213.953 133.998,213.953 133.833 C 213.953 133.668,213.278 133.533,212.453 133.533 C 211.628 133.533,210.953 133.668,210.953 133.833 M212.279 137.617 C 213.134 137.945,212.454 139.235,211.424 139.235 C 210.853 139.235,210.770 137.858,211.328 137.633 C 211.534 137.550,211.726 137.471,211.753 137.458 C 211.781 137.445,212.017 137.516,212.279 137.617 M204.711 187.307 C 204.115 187.903,204.299 188.148,205.326 188.126 C 206.099 188.109,206.180 188.057,205.715 187.875 C 205.132 187.648,205.132 187.643,205.715 187.305 C 206.291 186.971,206.290 186.965,205.686 186.956 C 205.348 186.951,204.909 187.109,204.711 187.307 M207.812 187.546 C 209.714 188.488,210.725 191.144,209.752 192.648 C 209.524 193.002,209.461 192.929,209.457 192.310 C 209.447 190.582,207.874 188.146,206.770 188.148 C 206.512 188.149,206.744 188.419,207.284 188.748 C 208.457 189.464,208.852 190.376,208.852 192.370 C 208.852 194.135,209.662 193.995,210.343 192.112 C 211.047 190.163,209.095 186.946,207.208 186.947 C 206.801 186.947,206.999 187.144,207.812 187.546 M202.586 190.479 C 200.626 192.344,200.784 194.746,202.881 194.978 C 203.485 195.045,203.449 194.989,202.654 194.630 C 200.023 193.440,202.164 189.651,205.469 189.649 C 208.596 189.646,208.091 193.365,204.801 194.568 C 204.141 194.809,203.846 195.016,204.146 195.028 C 205.490 195.080,207.560 193.292,207.832 191.844 C 208.337 189.149,204.919 188.260,202.586 190.479 " stroke="none" fill="#547cb4" fill-rule="evenodd"></path><path id="path1" d="M163.650 104.576 C 163.651 106.227,163.702 106.863,163.762 105.991 C 163.823 105.119,163.823 103.769,163.761 102.991 C 163.699 102.212,163.650 102.926,163.650 104.576 M218.605 123.931 C 218.707 124.096,218.538 124.231,218.231 124.231 C 217.635 124.231,215.454 126.061,215.454 126.560 C 215.454 126.724,215.245 127.031,214.990 127.243 C 214.735 127.455,214.596 127.809,214.681 128.030 C 214.817 128.385,213.672 128.631,212.666 128.464 C 212.536 128.442,212.183 128.555,211.883 128.716 C 211.584 128.876,210.837 129.041,210.224 129.083 C 209.611 129.124,209.044 129.265,208.963 129.395 C 208.883 129.526,208.442 129.632,207.984 129.632 C 207.526 129.632,207.058 129.726,206.943 129.841 C 206.828 129.956,206.536 130.091,206.293 130.141 C 206.050 130.191,205.655 130.273,205.416 130.323 C 205.176 130.373,204.557 130.947,204.040 131.598 C 203.523 132.250,202.909 132.891,202.675 133.023 C 202.442 133.155,202.251 133.398,202.251 133.562 C 202.251 134.160,200.757 135.334,199.996 135.334 C 199.551 135.334,199.294 135.463,199.400 135.634 C 199.556 135.887,197.667 136.121,196.752 135.962 C 196.616 135.938,196.590 136.057,196.695 136.227 C 196.809 136.412,196.462 136.549,195.817 136.572 C 194.669 136.612,194.536 136.636,193.848 136.926 C 193.601 137.030,193.061 137.167,192.648 137.229 C 192.236 137.291,191.695 137.430,191.448 137.538 C 191.200 137.646,190.543 137.786,189.987 137.849 C 189.431 137.912,188.859 138.149,188.716 138.374 C 188.524 138.678,188.455 138.614,188.452 138.127 C 188.449 137.766,188.312 137.386,188.147 137.284 C 187.982 137.182,187.847 136.864,187.847 136.577 C 187.847 135.070,183.722 134.898,182.276 136.344 C 181.720 136.900,181.193 137.282,181.105 137.194 C 181.017 137.106,180.945 137.201,180.945 137.406 C 180.945 138.043,180.240 138.481,179.070 138.573 L 177.944 138.661 177.881 132.721 L 177.817 126.782 177.629 133.383 C 177.526 137.014,177.339 140.343,177.214 140.781 C 176.933 141.759,178.033 142.329,178.642 141.522 C 179.074 140.948,181.300 140.751,181.474 141.270 C 181.541 141.471,181.895 141.635,182.261 141.635 C 182.626 141.635,183.073 141.782,183.252 141.962 C 183.487 142.197,183.635 142.197,183.780 141.962 C 184.098 141.447,185.446 141.562,185.446 142.103 C 185.446 142.361,185.340 142.505,185.209 142.425 C 185.079 142.344,184.708 142.673,184.384 143.156 C 184.061 143.639,183.587 144.035,183.331 144.035 C 183.075 144.036,182.737 144.165,182.580 144.322 C 182.423 144.479,181.788 144.641,181.170 144.683 C 180.551 144.725,180.045 144.851,180.045 144.963 C 180.045 145.249,178.647 145.485,178.283 145.260 C 178.118 145.158,177.926 144.402,177.856 143.580 C 177.736 142.173,177.729 142.191,177.736 143.889 C 177.740 144.880,177.586 145.985,177.394 146.344 C 176.951 147.171,176.937 149.137,177.373 149.137 C 177.593 149.137,177.643 149.662,177.525 150.713 C 177.033 155.084,176.985 156.339,177.310 156.339 C 177.494 156.339,177.649 156.575,177.654 156.864 C 177.662 157.360,177.679 157.361,177.965 156.871 C 178.131 156.585,178.253 156.271,178.236 156.173 C 178.180 155.851,179.515 154.847,179.780 155.011 C 179.922 155.098,179.976 154.994,179.900 154.779 C 179.687 154.177,180.350 153.553,182.018 152.786 C 184.334 151.720,187.639 147.529,185.781 148.015 C 184.964 148.229,184.958 147.759,185.772 147.323 C 186.116 147.139,186.327 146.917,186.240 146.831 C 185.959 146.549,187.541 145.197,187.896 145.417 C 188.103 145.544,188.158 145.497,188.034 145.297 C 187.766 144.862,189.718 142.309,190.197 142.469 C 190.400 142.537,190.528 142.410,190.482 142.189 C 190.429 141.937,190.736 141.749,191.298 141.687 C 191.793 141.633,192.326 141.465,192.483 141.312 C 192.640 141.160,193.270 141.035,193.883 141.035 C 194.497 141.035,195.044 140.913,195.099 140.763 C 195.154 140.613,195.671 140.447,196.249 140.394 C 196.827 140.341,197.380 140.185,197.479 140.048 C 197.577 139.910,198.084 139.785,198.604 139.771 C 199.257 139.752,199.551 139.595,199.554 139.264 C 199.558 138.845,199.596 138.841,199.850 139.235 C 200.010 139.482,200.143 139.545,200.145 139.374 C 200.148 139.203,200.386 139.055,200.675 139.045 C 200.964 139.034,201.395 138.972,201.634 138.905 C 202.240 138.737,204.051 136.930,204.051 136.494 C 204.051 136.296,204.140 136.223,204.249 136.332 C 204.359 136.442,204.790 136.025,205.208 135.407 C 206.197 133.946,206.617 133.533,207.120 133.533 C 207.347 133.533,207.660 133.412,207.817 133.263 C 207.974 133.114,208.657 132.931,209.334 132.857 C 210.012 132.783,210.699 132.640,210.860 132.540 C 211.022 132.440,211.649 132.325,212.254 132.284 C 212.859 132.244,213.353 132.095,213.353 131.954 C 213.353 131.813,213.477 131.774,213.628 131.867 C 213.779 131.960,213.953 131.883,214.016 131.695 C 214.174 131.223,215.454 131.662,215.454 132.188 C 215.454 133.079,217.380 134.134,219.008 134.134 C 219.859 134.134,220.555 133.998,220.555 133.833 C 220.555 133.668,220.901 133.533,221.323 133.533 C 221.745 133.533,222.023 133.423,221.940 133.288 C 221.856 133.154,222.188 132.807,222.677 132.518 C 223.166 132.229,223.489 131.867,223.393 131.713 C 223.298 131.559,223.445 131.433,223.720 131.433 C 224.047 131.433,224.159 131.273,224.043 130.971 C 223.942 130.709,224.058 130.436,224.311 130.339 C 224.645 130.211,224.756 129.649,224.756 128.082 C 224.756 126.768,224.645 126.065,224.456 126.182 C 224.291 126.284,224.156 126.156,224.156 125.899 C 224.156 125.642,224.013 125.431,223.838 125.431 C 223.663 125.431,223.604 125.296,223.706 125.131 C 223.808 124.966,223.643 124.831,223.340 124.831 C 223.036 124.831,222.593 124.561,222.356 124.231 C 221.888 123.583,218.207 123.288,218.605 123.931 M220.828 127.208 C 221.601 127.878,221.556 128.625,220.690 129.510 C 219.934 130.284,218.455 130.635,218.455 130.041 C 218.455 129.816,218.320 129.632,218.155 129.632 C 217.989 129.632,217.854 129.287,217.854 128.865 C 217.854 128.429,217.984 128.177,218.155 128.282 C 218.320 128.384,218.455 128.189,218.455 127.850 C 218.455 127.432,218.649 127.232,219.055 127.232 C 219.385 127.232,219.655 127.097,219.655 126.932 C 219.655 126.470,220.096 126.574,220.828 127.208 M185.004 138.048 C 185.213 138.384,184.643 139.235,184.209 139.235 C 183.902 139.235,183.853 138.228,184.146 137.934 C 184.437 137.644,184.783 137.689,185.004 138.048 M220.793 138.860 C 220.622 139.066,220.300 139.235,220.079 139.235 C 219.857 139.235,219.214 139.640,218.650 140.135 C 218.087 140.630,217.347 141.035,217.007 141.035 C 216.668 141.035,216.306 141.170,216.204 141.335 C 216.102 141.500,215.697 141.635,215.304 141.635 C 214.911 141.635,214.519 141.749,214.433 141.888 C 214.347 142.028,213.258 142.444,212.014 142.813 C 210.770 143.182,209.752 143.608,209.752 143.760 C 209.752 143.912,209.641 144.002,209.505 143.961 C 209.368 143.920,208.761 144.395,208.154 145.017 C 207.465 145.724,207.052 145.977,207.052 145.692 C 207.052 145.441,206.950 145.260,206.827 145.289 C 206.466 145.373,204.951 144.564,204.951 144.288 C 204.951 144.149,204.749 144.036,204.501 144.036 C 204.254 144.036,204.051 143.901,204.051 143.736 C 204.051 143.571,203.308 143.436,202.401 143.436 C 201.493 143.436,200.750 143.571,200.750 143.736 C 200.750 143.901,200.372 144.036,199.910 144.036 C 199.448 144.036,198.941 144.160,198.785 144.311 C 198.628 144.462,198.027 144.628,197.449 144.679 C 196.872 144.731,196.326 144.873,196.237 144.995 C 196.148 145.117,195.634 145.251,195.095 145.292 C 194.555 145.333,193.982 145.526,193.820 145.721 C 193.659 145.915,193.286 146.012,192.991 145.935 C 192.697 145.858,192.280 146.007,192.065 146.266 C 191.850 146.525,191.499 146.737,191.284 146.737 C 190.849 146.737,188.351 149.585,188.049 150.424 C 187.883 150.888,188.017 150.952,189.034 150.892 C 189.682 150.854,190.144 150.713,190.062 150.580 C 189.980 150.447,190.298 150.338,190.770 150.338 C 191.242 150.338,191.810 150.169,192.032 149.962 C 192.361 149.657,192.389 149.671,192.184 150.038 C 191.977 150.408,192.013 150.423,192.385 150.121 C 192.634 149.920,193.268 149.723,193.793 149.683 C 194.319 149.643,194.749 149.503,194.749 149.374 C 194.749 149.244,195.011 149.137,195.331 149.137 C 195.651 149.137,195.983 149.025,196.067 148.888 C 196.215 148.650,198.573 148.038,200.150 147.829 C 200.563 147.774,201.162 147.617,201.482 147.479 C 201.861 147.316,202.106 147.353,202.183 147.583 C 202.247 147.778,202.484 147.937,202.709 147.937 C 203.265 147.937,205.251 149.132,205.251 149.467 C 205.251 149.616,205.529 149.737,205.869 149.737 C 206.209 149.737,206.420 149.845,206.339 149.977 C 206.257 150.110,206.654 150.249,207.220 150.287 C 208.249 150.356,210.953 148.213,210.953 147.327 C 210.953 147.148,211.088 147.085,211.253 147.187 C 211.418 147.289,211.553 147.154,211.553 146.887 C 211.553 146.620,211.676 146.477,211.826 146.570 C 212.171 146.783,213.093 146.444,212.922 146.167 C 212.852 146.054,213.222 145.928,213.744 145.889 C 214.267 145.849,214.824 145.686,214.984 145.526 C 215.992 144.518,217.532 145.395,217.282 146.834 C 217.259 146.970,217.368 147.002,217.525 146.905 C 217.683 146.807,217.898 147.000,218.003 147.332 C 218.109 147.665,218.388 147.937,218.625 147.937 C 218.861 147.937,219.055 148.048,219.055 148.183 C 219.055 148.319,219.730 148.461,220.555 148.498 C 221.380 148.536,222.056 148.448,222.056 148.302 C 222.056 148.156,222.224 148.022,222.431 148.005 C 223.407 147.920,223.825 147.688,224.856 146.657 C 225.467 146.046,225.964 145.477,225.961 145.391 C 225.934 144.548,225.994 144.324,226.211 144.458 C 226.352 144.545,226.494 143.675,226.527 142.525 C 226.565 141.223,226.469 140.435,226.272 140.435 C 226.099 140.435,225.956 140.236,225.956 139.993 C 225.956 138.874,221.578 137.913,220.793 138.860 M223.031 141.753 C 223.576 142.167,223.791 143.917,223.256 143.586 C 222.981 143.416,222.822 143.826,222.928 144.433 C 222.951 144.569,222.848 144.605,222.697 144.512 C 222.547 144.419,222.263 144.536,222.067 144.773 C 221.787 145.110,221.553 145.131,220.982 144.871 C 219.654 144.266,220.149 142.139,221.755 141.548 C 222.409 141.308,222.454 141.315,223.031 141.753 M184.846 148.228 C 184.846 148.398,184.382 148.537,183.814 148.537 C 183.246 148.537,182.698 148.672,182.596 148.837 C 182.494 149.002,182.089 149.137,181.695 149.137 C 181.302 149.137,180.897 149.272,180.795 149.437 C 180.693 149.602,180.145 149.737,179.577 149.737 C 178.974 149.737,178.545 149.887,178.545 150.098 C 178.545 150.378,178.465 150.378,178.185 150.098 C 177.904 149.817,177.904 149.657,178.185 149.377 C 178.383 149.179,178.545 149.102,178.545 149.206 C 178.545 149.310,178.950 149.279,179.445 149.137 C 180.081 148.955,180.348 148.983,180.354 149.233 C 180.359 149.428,180.501 149.351,180.669 149.062 C 180.837 148.773,181.298 148.537,181.693 148.537 C 182.087 148.537,182.476 148.430,182.557 148.300 C 182.780 147.939,184.846 147.874,184.846 148.228 " stroke="none" fill="#2c3393" fill-rule="evenodd"></path><path id="path2" d="M205.688 187.370 C 205.144 187.768,205.175 187.805,206.204 187.999 C 207.990 188.334,209.445 190.262,209.457 192.310 C 209.461 192.929,209.524 193.002,209.752 192.648 C 210.731 191.135,209.706 188.468,207.789 187.541 C 206.327 186.833,206.413 186.840,205.688 187.370 M203.249 190.230 C 202.114 190.923,201.212 192.641,201.503 193.557 C 202.238 195.873,206.789 194.633,207.466 191.932 C 207.981 189.881,205.478 188.871,203.249 190.230 " stroke="none" fill="#f4f4f6" fill-rule="evenodd"></path><path id="path3" d="M164.141 95.406 C 164.141 96.057,164.016 96.666,163.863 96.761 C 163.701 96.861,163.690 97.297,163.837 97.811 C 164.203 99.087,164.205 107.427,163.839 107.427 C 163.675 107.427,163.541 107.570,163.541 107.745 C 163.541 107.919,163.642 108.000,163.766 107.923 C 163.890 107.847,163.991 109.189,163.991 110.906 C 163.991 112.624,163.905 114.029,163.800 114.029 C 163.456 114.029,163.482 206.380,163.827 206.593 C 164.000 206.700,164.141 207.379,164.141 208.102 C 164.141 208.825,164.276 209.500,164.441 209.602 C 164.606 209.704,164.741 210.185,164.741 210.670 C 164.741 211.156,164.876 211.553,165.041 211.553 C 165.206 211.553,165.341 211.763,165.341 212.021 C 165.341 212.278,165.476 212.405,165.641 212.303 C 165.806 212.201,165.941 212.251,165.941 212.415 C 165.941 213.338,169.550 214.670,170.014 213.919 C 170.107 213.767,170.310 213.721,170.463 213.816 C 170.617 213.911,170.743 213.846,170.743 213.671 C 170.743 213.496,170.518 213.353,170.244 213.353 C 169.780 213.353,169.753 209.308,169.869 155.668 L 169.992 97.982 168.548 97.776 C 166.676 97.507,165.832 96.929,165.147 95.445 C 164.443 93.918,164.141 93.906,164.141 95.406 M177.745 124.831 C 177.745 126.069,177.798 126.575,177.863 125.956 C 177.928 125.338,177.928 124.325,177.863 123.706 C 177.798 123.087,177.745 123.593,177.745 124.831 M177.057 140.103 C 176.618 141.164,176.888 142.239,177.590 142.226 C 178.027 142.218,178.015 142.157,177.505 141.771 C 176.986 141.379,176.959 141.213,177.275 140.375 C 177.734 139.160,177.546 138.925,177.057 140.103 M176.926 146.611 C 176.469 147.803,176.962 150.219,177.544 149.637 C 177.672 149.509,177.593 149.291,177.368 149.152 C 177.078 148.973,177.005 148.497,177.115 147.518 C 177.279 146.066,177.228 145.824,176.926 146.611 M177.092 152.096 C 176.485 154.122,176.791 157.778,177.475 156.671 C 177.587 156.489,177.537 156.339,177.362 156.339 C 176.939 156.339,176.951 153.396,177.379 152.167 C 177.563 151.639,177.652 151.146,177.577 151.071 C 177.502 150.995,177.284 151.457,177.092 152.096 M177.093 158.903 C 176.496 160.212,176.633 166.384,177.269 166.866 C 177.716 167.204,177.738 167.200,177.419 166.842 C 176.944 166.310,176.903 159.865,177.369 158.994 C 177.547 158.661,177.637 158.332,177.567 158.263 C 177.498 158.194,177.285 158.482,177.093 158.903 M204.576 187.064 C 203.613 187.796,203.923 188.447,205.234 188.447 C 205.884 188.447,206.509 188.597,206.622 188.779 C 206.759 189.002,206.621 189.046,206.204 188.914 C 204.658 188.423,201.048 190.587,201.051 192.003 C 201.052 192.310,201.269 192.143,201.622 191.564 C 202.592 189.974,207.384 188.100,207.292 189.347 C 207.252 189.893,207.400 190.035,207.631 189.671 C 207.805 189.396,207.876 189.849,207.833 190.950 C 207.754 192.924,208.148 192.850,208.300 190.863 C 208.420 189.290,207.181 188.147,205.357 188.147 C 204.299 188.147,204.113 187.905,204.711 187.307 C 206.809 185.209,211.510 189.223,210.334 192.107 C 209.554 194.022,209.025 194.020,208.819 192.101 L 208.636 190.398 208.669 192.198 C 208.708 194.328,209.196 194.567,210.266 192.979 C 212.495 189.670,207.704 184.690,204.576 187.064 M206.876 193.577 C 205.371 195.240,202.717 195.587,201.672 194.258 C 201.279 193.759,201.050 193.631,201.050 193.912 C 201.050 195.161,204.013 195.872,205.623 195.010 C 206.413 194.587,207.761 193.258,207.582 193.078 C 207.508 193.005,207.191 193.229,206.876 193.577 " stroke="none" fill="#0c4c74" fill-rule="evenodd"></path><path id="path4" d="M228.886 84.365 C 228.843 84.484,228.200 84.624,227.457 84.676 C 226.714 84.728,226.035 84.866,225.947 84.982 C 225.860 85.099,225.252 85.228,224.597 85.270 C 223.942 85.311,223.085 85.509,222.693 85.710 C 222.301 85.910,221.793 86.002,221.564 85.914 C 221.335 85.826,220.953 85.916,220.714 86.114 C 220.476 86.312,220.140 86.386,219.968 86.280 C 219.796 86.173,219.655 86.229,219.655 86.404 C 219.655 86.580,219.060 86.722,218.322 86.722 C 217.589 86.722,216.906 86.857,216.804 87.022 C 216.702 87.187,216.213 87.322,215.717 87.322 C 215.220 87.322,214.576 87.449,214.284 87.605 C 213.993 87.761,213.124 87.922,212.354 87.962 C 211.583 88.001,210.953 88.144,210.953 88.278 C 210.953 88.412,210.507 88.522,209.962 88.522 C 209.418 88.522,208.790 88.691,208.568 88.897 C 208.239 89.202,208.211 89.188,208.416 88.822 C 208.617 88.461,208.581 88.440,208.235 88.715 C 207.997 88.903,207.262 89.140,206.602 89.242 C 203.596 89.703,203.151 89.802,203.151 90.007 C 203.151 90.127,202.514 90.249,201.736 90.279 C 200.957 90.308,200.187 90.465,200.025 90.628 C 199.863 90.790,199.161 90.923,198.465 90.923 C 197.769 90.923,197.154 91.051,197.099 91.207 C 197.044 91.363,196.358 91.523,195.574 91.563 C 194.790 91.603,194.149 91.745,194.149 91.879 C 194.149 92.013,193.552 92.123,192.823 92.123 C 192.094 92.123,191.453 92.251,191.398 92.407 C 191.343 92.563,190.642 92.724,189.841 92.765 C 189.040 92.805,188.324 92.996,188.250 93.188 C 188.174 93.385,187.662 93.501,187.078 93.455 C 186.476 93.407,185.859 93.554,185.610 93.803 C 185.362 94.051,184.539 94.248,183.669 94.268 C 182.838 94.286,182.231 94.419,182.320 94.563 C 182.408 94.706,181.730 94.824,180.813 94.824 C 179.895 94.824,179.145 94.959,179.145 95.124 C 179.145 95.289,178.537 95.424,177.794 95.424 C 177.052 95.424,176.444 95.559,176.444 95.724 C 176.444 95.889,175.769 96.024,174.944 96.024 C 174.119 96.024,173.443 96.159,173.443 96.324 C 173.443 96.489,173.173 96.624,172.843 96.624 C 172.293 96.624,172.243 96.424,172.243 94.238 C 172.243 92.283,172.148 91.798,171.718 91.547 C 171.429 91.379,171.328 91.236,171.493 91.230 C 171.658 91.224,171.406 91.017,170.933 90.771 C 169.971 90.269,166.542 90.153,166.542 90.623 C 166.542 90.788,166.293 90.923,165.990 90.923 C 164.713 90.923,164.305 94.198,165.368 95.917 C 166.127 97.144,166.782 97.523,168.604 97.784 L 169.992 97.982 169.869 155.636 C 169.729 220.565,169.489 213.883,171.943 213.273 C 172.521 213.129,173.331 212.941,173.743 212.855 C 174.156 212.769,174.934 212.501,175.472 212.260 C 176.010 212.019,176.605 211.917,176.794 212.034 C 177.005 212.164,177.055 212.113,176.923 211.899 C 176.775 211.660,177.078 211.553,177.909 211.553 C 178.569 211.553,179.193 211.418,179.295 211.253 C 179.397 211.088,179.783 210.953,180.153 210.953 C 180.523 210.953,180.956 210.822,181.115 210.663 C 181.275 210.503,181.832 210.340,182.355 210.300 C 182.877 210.261,183.238 210.121,183.157 209.990 C 183.076 209.859,183.425 209.752,183.932 209.752 C 184.439 209.752,185.089 209.634,185.375 209.489 C 186.324 209.010,188.027 208.552,188.861 208.552 C 189.333 208.552,189.604 208.424,189.497 208.252 C 189.387 208.073,189.744 207.952,190.380 207.952 C 190.967 207.952,191.448 207.817,191.448 207.652 C 191.448 207.487,191.709 207.352,192.028 207.352 C 192.348 207.352,192.989 207.193,193.454 206.999 C 193.918 206.805,194.634 206.608,195.045 206.562 C 195.455 206.515,195.837 206.336,195.895 206.164 C 195.952 205.992,196.385 205.851,196.857 205.851 C 197.328 205.851,197.797 205.716,197.899 205.551 C 198.001 205.386,198.415 205.251,198.817 205.251 C 199.220 205.251,199.550 205.116,199.550 204.951 C 199.550 204.786,200.158 204.651,200.900 204.651 C 201.643 204.651,202.251 204.531,202.251 204.385 C 202.251 204.134,202.531 204.047,204.873 203.578 C 205.487 203.455,205.770 203.258,205.641 203.042 C 205.528 202.854,205.691 202.903,206.002 203.151 C 206.331 203.413,206.473 203.444,206.341 203.226 C 206.178 202.954,206.410 202.851,207.184 202.851 C 207.771 202.851,208.252 202.716,208.252 202.551 C 208.252 202.386,208.659 202.251,209.156 202.251 C 209.654 202.251,210.329 202.116,210.657 201.950 C 210.985 201.785,211.537 201.505,211.884 201.328 C 212.385 201.073,212.469 201.088,212.290 201.403 C 212.109 201.723,212.144 201.727,212.469 201.425 C 212.691 201.219,213.173 201.050,213.538 201.050 C 213.904 201.050,214.249 200.926,214.304 200.773 C 214.359 200.621,214.809 200.440,215.304 200.371 C 215.799 200.302,216.407 200.158,216.654 200.051 C 216.902 199.944,217.374 199.815,217.704 199.764 C 218.035 199.713,218.575 199.527,218.905 199.351 C 219.235 199.175,219.678 199.093,219.889 199.168 C 220.101 199.244,220.236 199.125,220.189 198.903 C 220.131 198.626,220.504 198.471,221.380 198.407 C 222.082 198.357,222.656 198.188,222.656 198.032 C 222.656 197.877,223.101 197.749,223.646 197.749 C 224.191 197.749,224.767 197.619,224.926 197.459 C 225.086 197.300,225.643 197.137,226.166 197.097 C 226.688 197.057,227.049 196.918,226.968 196.787 C 226.887 196.656,227.226 196.549,227.722 196.549 C 228.217 196.549,228.705 196.414,228.807 196.249 C 228.909 196.084,229.255 195.949,229.575 195.949 C 229.895 195.949,230.158 195.814,230.158 195.649 C 230.158 195.484,230.503 195.349,230.925 195.349 C 231.361 195.349,231.613 195.219,231.508 195.049 C 231.406 194.884,231.469 194.749,231.648 194.749 C 232.162 194.749,234.059 192.901,234.059 192.400 C 234.059 192.151,234.146 192.036,234.254 192.143 C 234.503 192.393,235.259 190.955,235.259 190.231 C 235.259 189.929,235.394 189.599,235.559 189.497 C 235.757 189.375,235.859 172.074,235.859 138.570 L 235.859 87.829 235.122 86.862 C 234.716 86.330,234.469 85.811,234.572 85.708 C 234.675 85.606,234.540 85.521,234.273 85.521 C 234.007 85.521,233.680 85.332,233.548 85.101 C 233.416 84.869,232.903 84.638,232.408 84.587 C 231.913 84.536,231.355 84.384,231.168 84.250 C 230.767 83.962,229.000 84.051,228.886 84.365 M224.003 101.130 C 223.932 101.245,224.342 101.593,224.915 101.901 C 225.520 102.227,225.956 102.692,225.956 103.012 C 225.956 103.314,226.092 103.478,226.257 103.376 C 226.435 103.265,226.557 103.623,226.557 104.258 C 226.557 104.846,226.692 105.326,226.857 105.326 C 227.055 105.326,227.157 116.135,227.157 137.152 C 227.157 158.293,227.056 168.915,226.857 168.792 C 226.689 168.689,226.557 168.919,226.557 169.315 C 226.557 170.120,225.920 171.637,225.581 171.641 C 225.458 171.642,225.356 171.868,225.356 172.143 C 225.356 172.418,225.269 172.556,225.162 172.449 C 225.055 172.342,224.751 172.503,224.487 172.808 C 223.784 173.617,222.000 174.641,221.290 174.643 C 220.952 174.643,220.544 174.775,220.384 174.935 C 220.223 175.095,219.825 175.268,219.498 175.319 C 219.172 175.370,218.718 175.528,218.489 175.671 C 218.260 175.813,217.787 175.961,217.439 175.999 C 216.368 176.115,216.314 176.136,216.469 176.386 C 216.551 176.520,216.056 176.662,215.369 176.703 C 214.681 176.743,214.044 176.898,213.952 177.047 C 213.860 177.195,213.283 177.350,212.669 177.392 C 212.055 177.433,211.553 177.559,211.553 177.672 C 211.553 177.784,211.182 177.951,210.728 178.042 C 208.883 178.413,208.094 178.645,207.952 178.860 C 207.869 178.984,207.262 179.127,206.602 179.177 C 205.376 179.270,205.036 179.372,203.795 180.020 C 203.217 180.322,203.129 180.317,203.313 179.992 C 203.495 179.673,203.460 179.668,203.135 179.970 C 202.913 180.176,202.345 180.345,201.873 180.345 C 201.377 180.345,201.093 180.472,201.200 180.645 C 201.306 180.816,201.047 180.945,200.598 180.945 C 200.165 180.945,199.541 181.090,199.211 181.266 C 198.539 181.626,197.856 181.800,196.099 182.059 C 195.439 182.156,194.824 182.350,194.732 182.489 C 194.640 182.629,194.201 182.773,193.757 182.810 C 193.312 182.846,192.948 182.990,192.948 183.129 C 192.948 183.268,192.823 183.304,192.669 183.209 C 192.515 183.114,192.299 183.182,192.188 183.361 C 192.078 183.540,191.808 183.618,191.589 183.534 C 191.371 183.450,191.030 183.576,190.833 183.814 C 190.636 184.052,190.026 184.246,189.478 184.246 C 188.931 184.246,188.399 184.381,188.297 184.546 C 188.195 184.711,187.722 184.846,187.247 184.846 C 186.771 184.846,186.299 184.981,186.197 185.146 C 186.095 185.311,185.546 185.446,184.979 185.446 C 184.411 185.446,183.946 185.581,183.946 185.746 C 183.946 185.911,183.616 186.047,183.214 186.047 C 182.811 186.047,182.398 186.182,182.296 186.347 C 182.194 186.512,181.502 186.647,180.760 186.647 C 180.017 186.647,179.476 186.755,179.558 186.887 C 179.639 187.019,179.227 187.159,178.642 187.198 L 177.577 187.270 177.799 177.336 C 178.021 167.421,178.020 167.401,177.383 166.955 C 176.445 166.298,176.421 160.023,177.351 158.498 C 177.794 157.772,177.876 157.370,177.659 156.998 C 177.496 156.718,177.356 156.624,177.349 156.789 C 177.341 156.954,177.204 156.887,177.044 156.639 C 176.592 155.940,176.693 153.405,177.241 151.665 C 177.704 150.197,177.704 150.054,177.241 149.591 C 176.616 148.966,176.587 146.937,177.194 146.329 C 177.706 145.818,177.842 142.236,177.350 142.236 C 176.821 142.236,176.685 140.820,177.130 139.942 C 177.481 139.250,177.605 136.400,177.776 125.135 C 177.892 117.463,178.015 111.157,178.050 111.123 C 178.084 111.088,178.691 111.026,179.398 110.984 C 180.105 110.942,180.750 110.800,180.832 110.668 C 180.914 110.536,181.302 110.428,181.695 110.428 C 182.089 110.428,182.499 110.283,182.608 110.107 C 182.717 109.931,182.991 109.857,183.217 109.944 C 183.442 110.030,183.693 109.994,183.774 109.864 C 183.854 109.733,184.230 109.652,184.608 109.685 C 184.987 109.717,185.672 109.555,186.130 109.323 C 186.589 109.092,187.085 108.977,187.231 109.068 C 187.378 109.159,187.702 109.029,187.951 108.780 C 188.500 108.231,188.863 108.186,188.571 108.702 C 188.401 109.002,188.440 109.002,188.763 108.702 C 188.985 108.496,189.451 108.327,189.797 108.327 C 190.144 108.327,190.609 108.158,190.832 107.952 C 191.160 107.647,191.191 107.661,190.998 108.027 C 190.804 108.393,190.835 108.407,191.164 108.102 C 191.386 107.896,191.938 107.727,192.390 107.727 C 192.843 107.727,193.296 107.592,193.398 107.427 C 193.500 107.262,194.191 107.127,194.934 107.127 C 195.677 107.127,196.218 107.019,196.136 106.887 C 196.055 106.755,196.485 106.613,197.093 106.572 C 197.701 106.531,198.327 106.369,198.484 106.212 C 198.641 106.055,199.342 105.926,200.042 105.926 C 200.742 105.926,201.398 105.791,201.500 105.626 C 201.602 105.461,202.143 105.326,202.701 105.326 C 203.259 105.326,203.799 105.191,203.901 105.026 C 204.003 104.861,204.611 104.726,205.251 104.726 C 205.892 104.726,206.500 104.591,206.602 104.426 C 206.704 104.261,207.311 104.126,207.952 104.126 C 208.593 104.126,209.200 103.991,209.302 103.826 C 209.404 103.661,210.020 103.526,210.670 103.526 C 211.321 103.526,211.853 103.391,211.853 103.226 C 211.853 103.061,212.299 102.926,212.843 102.926 C 213.388 102.926,213.962 102.802,214.119 102.650 C 214.275 102.499,214.944 102.335,215.604 102.286 C 216.264 102.237,216.874 102.100,216.960 101.981 C 217.045 101.862,217.709 101.693,218.434 101.606 C 219.160 101.518,219.899 101.301,220.078 101.123 C 220.427 100.773,224.219 100.780,224.003 101.130 M163.589 110.953 C 163.562 112.644,163.642 114.029,163.766 114.029 C 163.890 114.030,163.954 113.051,163.909 111.854 C 163.768 108.116,163.639 107.753,163.589 110.953 M163.650 123.181 C 163.651 124.831,163.702 125.468,163.762 124.596 C 163.823 123.724,163.823 122.374,163.761 121.595 C 163.699 120.817,163.650 121.530,163.650 123.181 M219.730 123.538 C 220.019 123.613,220.491 123.613,220.780 123.538 C 221.069 123.462,220.833 123.400,220.255 123.400 C 219.677 123.400,219.441 123.462,219.730 123.538 M208.888 187.272 C 210.819 188.647,211.443 191.232,210.266 192.979 C 209.193 194.571,208.731 194.323,208.529 192.048 C 208.434 190.975,208.332 190.538,208.304 191.077 C 208.068 195.528,201.050 197.322,201.050 192.932 C 201.050 190.619,204.096 188.245,206.204 188.914 C 206.621 189.046,206.759 189.002,206.622 188.779 C 206.509 188.597,205.884 188.447,205.234 188.447 C 204.338 188.447,204.051 188.328,204.051 187.955 C 204.051 186.599,207.299 186.140,208.888 187.272 " stroke="none" fill="#043454" fill-rule="evenodd"></path></g></svg>